<svg xmlns="http://www.w3.org/2000/svg" viewBox="0 0 220 56" fill="none" aria-label="CFRM Hub">
  <defs>
    <linearGradient id="cf-full-blue" x1="0" y1="0" x2="56" y2="56" gradientUnits="userSpaceOnUse">
      <stop stop-color="#1e4a8a"/>
      <stop offset="1" stop-color="#2563eb"/>
    </linearGradient>
    <linearGradient id="cf-full-accent" x1="20" y1="16" x2="44" y2="40" gradientUnits="userSpaceOnUse">
      <stop stop-color="#0ea5e9"/>
      <stop offset="1" stop-color="#38bdf8"/>
    </linearGradient>
  </defs>
  <g transform="translate(0 4)">
    <path
      fill="url(#cf-full-blue)"
      d="M44 6H16C11.58 6 8 9.58 8 14v14c0 4.42 3.58 8 8 8h5.2L9.4 43.2c-.52 1.04.46 2.2 1.48 1.68L28 36h16c4.42 0 8-3.58 8-8V14c0-4.42-3.58-8-8-8Z"
    />
    <circle cx="28" cy="22" r="4.2" fill="#fff" fill-opacity="0.95"/>
    <circle cx="19.5" cy="17" r="2.7" fill="url(#cf-full-accent)"/>
    <circle cx="36.5" cy="17" r="2.7" fill="#fff" fill-opacity="0.9"/>
    <circle cx="28" cy="29" r="2.7" fill="#fff" fill-opacity="0.85"/>
    <path
      stroke="#fff"
      stroke-opacity="0.4"
      stroke-width="1.2"
      stroke-linecap="round"
      d="M21.5 17.8l3.6 2.2M34.5 17.8 31 20M28 27.5v-2.5"
    />
  </g>
  <text
    x="64"
    y="38"
    fill="#0f172a"
    font-family="system-ui, -apple-system, 'Segoe UI', Roboto, 'Helvetica Neue', Arial, sans-serif"
    font-size="22"
    font-weight="700"
    letter-spacing="-0.02em"
  >CFRM</text>
  <text
    x="124"
    y="38"
    fill="#475569"
    font-family="system-ui, -apple-system, 'Segoe UI', Roboto, 'Helvetica Neue', Arial, sans-serif"
    font-size="22"
    font-weight="500"
    letter-spacing="-0.01em"
  > Hub</text>
</svg>
