<svg xmlns="http://www.w3.org/2000/svg" viewBox="0 0 64 64" fill="none">
  <defs>
    <linearGradient id="fb-blue" x1="8" y1="12" x2="56" y2="52" gradientUnits="userSpaceOnUse">
      <stop stop-color="#1e4a8a"/>
      <stop offset="1" stop-color="#2563eb"/>
    </linearGradient>
    <linearGradient id="fb-accent" x1="32" y1="20" x2="48" y2="36" gradientUnits="userSpaceOnUse">
      <stop stop-color="#0ea5e9"/>
      <stop offset="1" stop-color="#38bdf8"/>
    </linearGradient>
  </defs>
  <path
    fill="url(#fb-blue)"
    d="M52 14H20c-4.42 0-8 3.58-8 8v18c0 4.42 3.58 8 8 8h6.5l-4.8 9.6c-.65 1.3.58 2.75 1.85 2.1L36 48h16c4.42 0 8-3.58 8-8V22c0-4.42-3.58-8-8-8Z"
  />
  <circle cx="32" cy="30" r="5" fill="#fff" fill-opacity="0.95"/>
  <circle cx="22" cy="24" r="3.25" fill="url(#fb-accent)"/>
  <circle cx="42" cy="24" r="3.25" fill="#fff" fill-opacity="0.9"/>
  <circle cx="32" cy="38" r="3.25" fill="#fff" fill-opacity="0.85"/>
  <path
    stroke="#fff"
    stroke-opacity="0.45"
    stroke-width="1.5"
    stroke-linecap="round"
    d="M24.6 25.4 29.2 28M39.4 25.4 34.8 28M32 35v-3"
  />
</svg>
